HIERARCHY
ROOT Hips
{
	OFFSET 0.000000 103.266502 0.000000
	CHANNELS 6 Xposition Yposition Zposition Xrotation Yrotation Zrotation 
	JOINT Spine
	{
		OFFSET -0.002400 12.777504 0.315300
		CHANNELS 3 Xrotation Yrotation Zrotation
		JOINT Spine1
		{
			OFFSET -0.002067 5.816869 0.032633
			CHANNELS 3 Xrotation Yrotation Zrotation
			JOINT Spine1_split
			{
				OFFSET -0.002067 5.816869 0.032633
				CHANNELS 3 Xrotation Yrotation Zrotation
				JOINT Spine2
				{
					OFFSET -0.002067 5.816869 0.032633
					CHANNELS 3 Xrotation Yrotation Zrotation
					JOINT Neck
					{
						OFFSET -0.003700 21.199493 -0.826900
						CHANNELS 3 Xrotation Yrotation Zrotation
						JOINT Head
						{
							OFFSET 0.000000 20.442200 4.834800
							CHANNELS 3 Xrotation Yrotation Zrotation
							JOINT HeadTop_End
							{
								OFFSET 0.000000 34.668396 4.968400
								CHANNELS 3 Xrotation Yrotation Zrotation
								End Site
								{
									OFFSET 0.000000 0.000000 0.000000
								}
							}
						}
					}
					JOINT LeftShoulder
					{
						OFFSET 3.288150 8.794197 -1.372250
						CHANNELS 3 Xrotation Yrotation Zrotation
						JOINT LeftShoulder_split
						{
							OFFSET 3.288150 8.794197 -1.372250
							CHANNELS 3 Xrotation Yrotation Zrotation
							JOINT LeftArm
							{
								OFFSET 11.953299 -2.279007 -0.146200
								CHANNELS 3 Xrotation Yrotation Zrotation
								JOINT LeftForeArm
								{
									OFFSET 18.448900 0.000000 0.000000
									CHANNELS 3 Xrotation Yrotation Zrotation
									JOINT LeftHand
									{
										OFFSET 29.527798 0.000000 0.000000
										CHANNELS 3 Xrotation Yrotation Zrotation
										JOINT LeftHandThumb1
										{
											OFFSET 10.739754 -2.369614 9.225399
											CHANNELS 3 Xrotation Yrotation Zrotation
											JOINT LeftHandThumb2
											{
												OFFSET 4.926170 -2.844131 2.844125
												CHANNELS 3 Xrotation Yrotation Zrotation
												JOINT LeftHandThumb3
												{
													OFFSET 4.614891 -2.664413 2.664409
													CHANNELS 3 Xrotation Yrotation Zrotation
													JOINT LeftHandThumb4
													{
														OFFSET 4.432465 -2.559082 2.559083
														CHANNELS 3 Xrotation Yrotation Zrotation
														End Site
														{
															OFFSET 0.000000 0.000000 0.000000
														}
													}
												}
											}
										}
										JOINT LeftHandIndex1
										{
											OFFSET 26.467674 0.187653 6.405298
											CHANNELS 3 Xrotation Yrotation Zrotation
											JOINT LeftHandIndex2
											{
												OFFSET 8.792900 0.000000 0.000000
												CHANNELS 3 Xrotation Yrotation Zrotation
												JOINT LeftHandIndex3
												{
													OFFSET 10.075203 0.000000 0.000000
													CHANNELS 3 Xrotation Yrotation Zrotation
													End Site
													{
														OFFSET 0.000000 0.000000 0.000000
													}
												}
											}
										}
										JOINT LeftHandMiddle1
										{
											OFFSET 25.764404 0.000000 0.000000
											CHANNELS 3 Xrotation Yrotation Zrotation
											JOINT LeftHandMiddle2
											{
												OFFSET 9.393974 0.000000 0.000000
												CHANNELS 3 Xrotation Yrotation Zrotation
												JOINT LeftHandMiddle3
												{
													OFFSET 10.771950 0.000000 0.000000
													CHANNELS 3 Xrotation Yrotation Zrotation
													End Site
													{
														OFFSET 0.000000 0.000000 0.000000
													}
												}
											}
										}
										JOINT LeftHandRing1
										{
											OFFSET 24.660927 0.144547 -6.225808
											CHANNELS 3 Xrotation Yrotation Zrotation
											JOINT LeftHandRing2
											{
												OFFSET 9.393799 0.000000 0.000000
												CHANNELS 3 Xrotation Yrotation Zrotation
												JOINT LeftHandRing3
												{
													OFFSET 9.928497 0.000000 0.000000
													CHANNELS 3 Xrotation Yrotation Zrotation
													End Site
													{
														OFFSET 0.000000 0.000000 0.000000
													}
												}
											}
										}
										JOINT LeftHandPinky1
										{
											OFFSET 23.655350 0.125290 -12.815412
											CHANNELS 3 Xrotation Yrotation Zrotation
											JOINT LeftHandPinky2
											{
												OFFSET 8.425102 0.000000 0.000000
												CHANNELS 3 Xrotation Yrotation Zrotation
												JOINT LeftHandPinky3
												{
													OFFSET 8.147003 0.000000 0.000000
													CHANNELS 3 Xrotation Yrotation Zrotation
													End Site
													{
														OFFSET 0.000000 0.000000 0.000000
													}
												}
											}
										}
									}
								}
							}
						}
					}
					JOINT RightShoulder
					{
						OFFSET -3.249400 8.794197 -1.372250
						CHANNELS 3 Xrotation Yrotation Zrotation
						JOINT RightShoulder_split
						{
							OFFSET -3.249400 8.794197 -1.372250
							CHANNELS 3 Xrotation Yrotation Zrotation
							JOINT RightArm
							{
								OFFSET -11.953299 -2.279007 -0.146200
								CHANNELS 3 Xrotation Yrotation Zrotation
								JOINT RightForeArm
								{
									OFFSET -18.448900 0.000000 0.000000
									CHANNELS 3 Xrotation Yrotation Zrotation
									JOINT RightHand
									{
										OFFSET -29.527802 0.000000 0.000000
										CHANNELS 3 Xrotation Yrotation Zrotation
										JOINT RightHandThumb1
										{
											OFFSET -10.739754 -2.369614 9.225399
											CHANNELS 3 Xrotation Yrotation Zrotation
											JOINT RightHandThumb2
											{
												OFFSET -4.926170 -2.844131 2.844125
												CHANNELS 3 Xrotation Yrotation Zrotation
												JOINT RightHandThumb3
												{
													OFFSET -4.614891 -2.664413 2.664409
													CHANNELS 3 Xrotation Yrotation Zrotation
													JOINT RightHandThumb4
													{
														OFFSET -4.432465 -2.559082 2.559083
														CHANNELS 3 Xrotation Yrotation Zrotation
														End Site
														{
															OFFSET 0.000000 0.000000 0.000000
														}
													}
												}
											}
										}
										JOINT RightHandIndex1
										{
											OFFSET -26.467674 0.187653 6.405298
											CHANNELS 3 Xrotation Yrotation Zrotation
											JOINT RightHandIndex2
											{
												OFFSET -8.792900 0.000000 0.000000
												CHANNELS 3 Xrotation Yrotation Zrotation
												JOINT RightHandIndex3
												{
													OFFSET -10.075203 0.000000 0.000000
													CHANNELS 3 Xrotation Yrotation Zrotation
													End Site
													{
														OFFSET 0.000000 0.000000 0.000000
													}
												}
											}
										}
										JOINT RightHandMiddle1
										{
											OFFSET -25.764404 0.000000 0.000000
											CHANNELS 3 Xrotation Yrotation Zrotation
											JOINT RightHandMiddle2
											{
												OFFSET -9.393974 0.000000 0.000000
												CHANNELS 3 Xrotation Yrotation Zrotation
												JOINT RightHandMiddle3
												{
													OFFSET -10.771950 0.000000 0.000000
													CHANNELS 3 Xrotation Yrotation Zrotation
													End Site
													{
														OFFSET 0.000000 0.000000 0.000000
													}
												}
											}
										}
										JOINT RightHandRing1
										{
											OFFSET -24.660927 0.144547 -6.225808
											CHANNELS 3 Xrotation Yrotation Zrotation
											JOINT RightHandRing2
											{
												OFFSET -9.393799 0.000000 0.000000
												CHANNELS 3 Xrotation Yrotation Zrotation
												JOINT RightHandRing3
												{
													OFFSET -9.928497 0.000000 0.000000
													CHANNELS 3 Xrotation Yrotation Zrotation
													End Site
													{
														OFFSET 0.000000 0.000000 0.000000
													}
												}
											}
										}
										JOINT RightHandPinky1
										{
											OFFSET -23.655350 0.125290 -12.815412
											CHANNELS 3 Xrotation Yrotation Zrotation
											JOINT RightHandPinky2
											{
												OFFSET -8.425102 0.000000 0.000000
												CHANNELS 3 Xrotation Yrotation Zrotation
												JOINT RightHandPinky3
												{
													OFFSET -8.147003 0.000000 0.000000
													CHANNELS 3 Xrotation Yrotation Zrotation
													End Site
													{
														OFFSET 0.000000 0.000000 0.000000
													}
												}
											}
										}
									}
								}
							}
						}
					}
				}
			}
		}
	}
	JOINT LeftUpLeg
	{
		OFFSET 11.394100 -6.187798 -0.413800
		CHANNELS 3 Xrotation Yrotation Zrotation
		JOINT LeftLeg
		{
			OFFSET 0.430247 -32.302673 3.732800
			CHANNELS 3 Xrotation Yrotation Zrotation
			JOINT LeftFoot
			{
				OFFSET -0.430247 -48.264931 -6.423300
				CHANNELS 3 Xrotation Yrotation Zrotation
				JOINT LeftToeBase
				{
					OFFSET 4.230900 -16.068199 23.438400
					CHANNELS 3 Xrotation Yrotation Zrotation
					JOINT LeftToe_End
					{
						OFFSET 4.510700 0.695400 19.974600
						CHANNELS 3 Xrotation Yrotation Zrotation
						End Site
						{
							OFFSET 0.000000 0.000000 0.000000
						}
					}
				}
			}
		}
	}
	JOINT RightUpLeg
	{
		OFFSET -11.333700 -6.187798 -0.413800
		CHANNELS 3 Xrotation Yrotation Zrotation
		JOINT RightLeg
		{
			OFFSET -0.430392 -32.302628 3.733000
			CHANNELS 3 Xrotation Yrotation Zrotation
			JOINT RightFoot
			{
				OFFSET 0.430392 -48.264973 -6.423500
				CHANNELS 3 Xrotation Yrotation Zrotation
				JOINT RightToeBase
				{
					OFFSET -4.230900 -16.068199 23.438400
					CHANNELS 3 Xrotation Yrotation Zrotation
					JOINT RightToe_End
					{
						OFFSET -4.510700 0.695400 19.974600
						CHANNELS 3 Xrotation Yrotation Zrotation
						End Site
						{
							OFFSET 0.000000 0.000000 0.000000
						}
					}
				}
			}
		}
	}
}
MOTION
Frames: 5
Frame Time: 0.016667
0.548196 101.032921 -1.047407 2.912637 -28.992732 1.099293 7.836588 -0.346859 -2.592629 1.099253 -0.880575 2.383464 0.000000 0.000000 0.000000 1.108680 -0.590451 2.446366 -3.842071 18.019057 -6.496396 -6.332478 13.021551 0.301482 0.000000 0.000000 -0.000000 -0.057390 -8.759441 -0.061013 0.000000 0.000000 0.000000 -55.249749 0.330148 -41.449905 11.585991 -65.829554 13.007194 -50.191191 12.353359 4.611960 17.542482 -5.723954 -12.930217 10.850485 26.127738 8.644812 20.926976 51.115852 0.218773 -0.000000 0.000004 -0.000004 13.974935 1.202176 -55.004347 0.370820 1.161736 -65.441880 0.000000 0.000001 0.000003 7.504715 1.174502 -63.778517 1.807868 1.475675 -64.567923 -0.000001 0.000000 -0.000001 8.574328 2.179132 -75.148999 -0.207637 1.009272 -57.855049 -0.000000 -0.000000 -0.000001 10.030110 13.637070 -84.750251 0.877112 0.062311 -64.595531 0.000000 0.000000 0.000001 4.849286 7.760145 5.560445 0.000000 0.000000 0.000000 -0.933497 -2.176885 61.845662 11.299286 18.943446 -3.987509 -0.459217 6.620148 5.830143 15.788512 -2.734475 -17.205866 -2.198339 -31.113557 7.361251 -6.566807 -4.138117 2.407545 0.000000 -0.000001 0.000002 2.374670 -3.640936 8.487437 -2.147350 -2.473145 18.673247 0.000001 -0.000000 0.000001 -1.990496 -5.687064 13.662139 0.282187 -5.088227 26.988304 0.000000 0.000000 -0.000000 -3.248698 -8.544120 11.772722 4.043119 -4.063245 33.263643 -0.000000 0.000001 0.000002 -6.473325 -11.333580 23.262786 10.715338 -2.558936 34.822873 0.000000 -0.000000 0.000001 -17.586281 18.039298 11.713294 15.595948 13.146066 -1.047463 -0.208391 -4.071450 -5.300768 -0.131852 -0.014310 -0.311713 0.000000 0.000000 -0.000000 -8.762042 -1.425576 -9.027585 10.754657 9.473390 0.841693 -5.319224 -0.876831 7.446399 -1.288153 -0.019880 0.149894 -0.000000 -0.000000 -0.000000 
0.629439 100.977585 -1.170650 2.958281 -28.864776 1.076353 7.802998 -0.345661 -2.594874 1.074048 -0.871342 2.364663 0.000000 0.000000 0.000000 1.083490 -0.588038 2.427853 -3.746777 18.050074 -6.586955 -6.429086 13.000713 0.448108 0.000000 -0.000000 -0.000000 -0.004174 -8.315557 -0.161324 0.000000 0.000000 0.000000 -55.335252 0.717920 -41.094827 10.897112 -65.775425 12.310771 -50.186154 12.360843 4.470058 17.542491 -5.723968 -12.930212 10.824638 26.057634 8.641513 21.008724 51.257441 0.185762 -0.000004 0.000001 0.000000 13.985150 1.290449 -55.047373 0.371063 1.161929 -65.457514 0.000000 0.000000 -0.000001 7.465922 1.197210 -63.754714 1.806390 1.476406 -64.514231 0.000001 0.000000 0.000000 8.571890 2.201332 -75.001283 -0.208892 1.005542 -57.694533 -0.000001 0.000000 0.000002 9.971815 13.637638 -84.708382 0.873399 0.061160 -64.420760 -0.000000 -0.000000 -0.000000 4.851985 7.811876 5.709653 0.000000 0.000000 0.000000 -0.844152 -2.132278 61.674621 11.420385 18.937661 -4.006084 -0.452336 6.527038 5.826804 15.788510 -2.734476 -17.205865 -2.106393 -31.245650 7.373550 -6.447859 -4.383498 2.353852 -0.000000 -0.000002 -0.000001 2.374293 -3.644131 8.645119 -2.147460 -2.473284 18.952856 -0.000001 -0.000000 -0.000000 -1.989613 -5.689716 13.819814 0.282328 -5.090150 27.267992 0.000000 -0.000000 -0.000002 -3.249576 -8.547458 11.930092 4.042380 -4.063371 33.543202 0.000000 -0.000001 0.000001 -6.473359 -11.335256 23.420410 10.719494 -2.558895 35.102726 0.000000 -0.000000 0.000003 -17.991644 17.996871 11.834567 15.955467 13.693646 -1.008466 -0.246357 -4.775876 -5.313719 -0.131847 -0.014309 -0.311710 -0.000000 -0.000000 -0.000000 -9.053260 -1.420468 -8.986210 11.077297 9.270478 0.801073 -5.390863 -0.868665 7.444071 -1.297526 -0.018803 0.101846 0.000000 -0.000001 -0.000000 
0.721053 100.920334 -1.284181 3.001611 -28.715464 1.044678 7.765983 -0.337036 -2.586857 1.051473 -0.856361 2.346641 0.000000 0.000000 0.000000 1.060733 -0.578901 2.409569 -4.035127 18.103341 -6.236035 -6.261315 13.166573 0.315302 -0.000000 0.000000 -0.000000 -0.095205 -7.833560 -0.261094 0.000000 0.000000 0.000000 -55.289070 1.044002 -40.597555 10.451513 -65.790417 11.849313 -50.183838 12.334682 4.429941 17.542487 -5.723975 -12.930181 10.824645 26.057682 8.641514 21.008728 51.257380 0.185746 -0.000001 0.000004 -0.000003 13.985162 1.290549 -55.047326 0.371061 1.161942 -65.457466 0.000000 0.000001 0.000002 7.465885 1.197186 -63.754693 1.806384 1.476410 -64.514183 0.000001 -0.000000 -0.000002 8.571873 2.201302 -75.001310 -0.208874 1.005575 -57.694594 -0.000001 0.000001 0.000001 9.971816 13.637625 -84.708430 0.873414 0.061178 -64.421586 -0.000000 -0.000000 0.000001 4.852103 7.875474 5.834436 0.000000 0.000000 0.000000 -0.731465 -2.101488 61.529971 11.542485 18.958858 -4.028551 -0.441493 6.372632 5.804626 15.788510 -2.734475 -17.205865 -2.008255 -31.386389 7.386895 -6.321374 -4.645009 2.297045 -0.000000 -0.000002 -0.000001 2.373891 -3.647528 8.813131 -2.147530 -2.473425 19.250789 0.000001 0.000000 -0.000002 -1.988691 -5.692533 13.987963 0.282491 -5.092157 27.566012 -0.000000 0.000000 -0.000000 -3.250508 -8.551007 12.097791 4.041626 -4.063500 33.840866 0.000002 -0.000001 0.000002 -6.473473 -11.337009 23.588173 10.719569 -2.559007 35.400713 -0.000001 -0.000000 -0.000002 -18.414250 17.981576 11.962613 16.333323 14.239064 -0.968925 -0.297830 -5.529587 -5.317801 -0.131839 -0.014309 -0.311712 -0.000000 -0.000000 0.000000 -9.318525 -1.478534 -8.924990 11.372644 9.039944 0.716904 -5.457714 -0.843873 7.484099 -1.322980 -0.015837 -0.028569 -0.000000 0.000001 -0.000000 
0.826593 100.854248 -1.381345 3.034884 -28.506037 0.986086 7.720635 -0.314418 -2.549888 1.037690 -0.825885 2.332713 0.000000 0.000000 0.000000 1.046385 -0.551341 2.393834 -4.158289 18.277615 -6.094379 -6.212596 13.365645 0.304791 0.000000 0.000000 0.000000 -0.122214 -7.332437 -0.371027 0.000000 0.000000 0.000000 -55.212965 1.531656 -40.105614 9.829927 -65.922609 11.210575 -50.174563 12.301557 4.331365 17.542460 -5.723961 -12.930218 10.824813 26.058121 8.641542 21.008528 51.257004 0.185834 0.000001 0.000000 -0.000004 13.985197 1.291129 -55.047087 0.371049 1.161936 -65.456988 0.000001 0.000002 0.000001 7.465660 1.197337 -63.754523 1.806394 1.476423 -64.513985 0.000001 0.000001 0.000006 8.571852 2.201212 -75.001604 -0.208874 1.005566 -57.694902 0.000001 0.000000 0.000003 9.972034 13.637644 -84.708648 0.873454 0.061197 -64.423068 0.000000 0.000000 0.000003 4.844674 7.972241 5.880414 0.000000 0.000000 0.000000 -0.550615 -2.122582 61.472830 11.675093 19.081201 -4.071071 -0.420798 6.034997 5.735737 15.788513 -2.734475 -17.205865 -1.904642 -31.534574 7.401386 -6.188440 -4.920553 2.237848 -0.000001 0.000004 0.000000 2.373495 -3.651110 8.990274 -2.147579 -2.473562 19.564587 -0.000000 -0.000000 -0.000001 -1.987681 -5.695486 14.164828 0.282656 -5.094231 27.879635 0.000001 -0.000000 0.000001 -3.251466 -8.554748 12.274402 4.040895 -4.063624 34.154702 0.000000 -0.000000 0.000001 -6.473511 -11.338849 23.764953 10.719657 -2.559126 35.714356 -0.000000 -0.000000 -0.000001 -18.900173 17.986364 12.074449 16.740283 13.389344 -1.029791 -0.353101 -4.971264 -5.143813 -0.131858 -0.014307 -0.311712 -0.000000 0.000000 0.000000 -9.550226 -1.587297 -8.841731 11.664094 8.749022 0.597186 -5.539621 -0.809256 7.567180 -1.360490 -0.015840 -0.220849 -0.000000 -0.000002 -0.000000 
0.937649 100.787247 -1.468172 3.072815 -28.267499 0.920952 7.670208 -0.282965 -2.497512 1.024543 -0.785731 2.316041 0.000000 0.000000 0.000000 1.032501 -0.513467 2.374547 -4.234205 18.653812 -6.061270 -6.174074 13.712730 0.322351 0.000000 -0.000000 -0.000000 -0.121056 -6.796879 -0.488154 0.000000 0.000000 0.000000 -55.142945 2.029468 -39.651700 9.135340 -66.083815 10.497833 -50.169218 12.261298 4.242507 17.542491 -5.723968 -12.930201 10.825046 26.058749 8.641569 21.008209 51.256513 0.185971 0.000001 0.000001 -0.000002 13.985277 1.291879 -55.046735 0.371049 1.161924 -65.456428 -0.000000 0.000003 -0.000001 7.465423 1.197495 -63.754318 1.806401 1.476417 -64.513746 0.000001 0.000001 0.000001 8.571873 2.201095 -75.001938 -0.208867 1.005580 -57.695250 0.000000 -0.000001 -0.000001 9.972355 13.637644 -84.708949 0.873478 0.061203 -64.424865 -0.000000 -0.000000 0.000002 4.835496 8.084638 5.913528 0.000000 0.000000 0.000000 -0.348455 -2.133826 61.427095 11.793702 19.189410 -4.098376 -0.394890 5.634961 5.628135 15.788508 -2.734476 -17.205865 -1.796521 -31.689079 7.416684 -6.050126 -5.207895 2.176832 -0.000002 0.000002 0.000002 2.373091 -3.654846 9.174764 -2.147601 -2.473692 19.891483 -0.000000 -0.000000 0.000001 -1.986625 -5.698569 14.349263 0.282810 -5.096319 28.206531 0.000000 -0.000000 0.000003 -3.252449 -8.558650 12.458477 4.040151 -4.063750 34.481653 0.000000 0.000000 0.000001 -6.473600 -11.340749 23.949210 10.719766 -2.559238 36.041470 -0.000001 -0.000000 0.000002 -19.397720 18.003795 12.215179 17.183993 13.426569 -1.019953 -0.434878 -5.350185 -5.068286 -0.131853 -0.014306 -0.311712 0.000000 0.000000 0.000000 -9.760690 -1.729197 -8.746926 11.932055 8.428174 0.454707 -5.619260 -0.766832 7.678488 -1.406018 -0.015864 -0.454340 -0.000000 -0.000000 -0.000000 
